<!DOCTYPE svg PUBLIC "-//W3C//DTD SVG 20010904//EN" "http://www.w3.org/TR/2001/REC-SVG-20010904/DTD/svg10.dtd">
<svg version="1.0" xmlns="http://www.w3.org/2000/svg" width="50px" height="50px" viewBox="0 0 500 500" preserveAspectRatio="xMidYMid meet">
<g id="layer101" fill="#FFFFFF" stroke="none">
 <path d="M167 389 c-81 -61 -119 -119 -119 -183 0 -52 13 -80 48 -102 31 -21 96 -21 127 -1 22 14 27 14 46 1 26 -19 101 -20 129 -3 46 29 65 103 42 163 -19 52 -158 176 -196 176 -5 0 -39 -23 -77 -51z m150 -33 c115 -87 138 -194 48 -232 -39 -16 -59 -11 -97 23 -26 25 -26 25 -37 5 -14 -26 -65 -44 -94 -33 -58 23 -76 91 -40 153 20 35 129 128 149 128 7 0 38 -20 71 -44z"/>
 </g>

</svg>