<!DOCTYPE svg PUBLIC "-//W3C//DTD SVG 20010904//EN" "http://www.w3.org/TR/2001/REC-SVG-20010904/DTD/svg10.dtd">
<svg version="1.0" xmlns="http://www.w3.org/2000/svg" width="48px" height="48px" viewBox="0 0 480 480" preserveAspectRatio="xMidYMid meet">
<g id="layer101" fill="#ff3d00" stroke="none">
 <path d="M185 357 c-122 -103 -135 -120 -135 -171 0 -39 5 -53 29 -77 24 -23 38 -29 73 -29 24 0 54 7 66 16 20 14 24 14 44 0 12 -9 42 -16 66 -16 35 0 49 6 73 29 24 24 29 38 29 77 0 42 -4 51 -43 88 -46 44 -144 126 -149 125 -2 0 -25 -19 -53 -42z"/>
 </g>

</svg>